<svg width="74" height="20" viewBox="0 0 74 20" fill="none" xmlns="http://www.w3.org/2000/svg">
<path d="M10.4152 9.26136C10.4152 11.1326 9.98594 12.6402 9.1275 13.7841C8.26907 14.928 7.10677 15.5 5.64059 15.5C4.14403 15.5 2.96653 15.0265 2.1081 14.0795V20H0V2.97727H1.92578L2.02833 4.34091C2.88677 3.2803 4.07946 2.75 5.60641 2.75C7.08777 2.75 8.25767 3.30682 9.11611 4.42045C9.98214 5.53409 10.4152 7.08333 10.4152 9.06818V9.26136ZM8.30705 9.02273C8.30705 7.63636 8.01078 6.54167 7.41823 5.73864C6.82569 4.93561 6.01283 4.53409 4.97967 4.53409C3.70342 4.53409 2.74623 5.09848 2.1081 6.22727V12.1023C2.73863 13.2235 3.70342 13.7841 5.00246 13.7841C6.01283 13.7841 6.81429 13.3864 7.40684 12.5909C8.00698 11.7879 8.30705 10.5985 8.30705 9.02273Z" fill="white"/>
<path d="M18.2208 15.5C16.5495 15.5 15.1897 14.9545 14.1414 13.8636C13.093 12.7652 12.5688 11.2992 12.5688 9.46591V9.07955C12.5688 7.85985 12.8005 6.77273 13.2639 5.81818C13.7349 4.85606 14.3883 4.10606 15.2239 3.56818C16.0671 3.02273 16.9788 2.75 17.9587 2.75C19.5616 2.75 20.8075 3.27652 21.6963 4.32955C22.5852 5.38258 23.0296 6.89015 23.0296 8.85227V9.72727H14.6769C14.7073 10.9394 15.0606 11.9205 15.7367 12.6705C16.4204 13.4129 17.2864 13.7841 18.3348 13.7841C19.0793 13.7841 19.7098 13.6326 20.2264 13.3295C20.7429 13.0265 21.1949 12.625 21.5824 12.125L22.87 13.125C21.8369 14.7083 20.2871 15.5 18.2208 15.5ZM17.9587 4.47727C17.1079 4.47727 16.3938 4.78788 15.8164 5.40909C15.2391 6.02273 14.882 6.88636 14.7453 8H20.9215V7.84091C20.8607 6.77273 20.572 5.94697 20.0554 5.36364C19.5389 4.77273 18.84 4.47727 17.9587 4.47727Z" fill="white"/>
<path d="M28.3397 0V2.97727H30.6415V4.60227H28.3397V12.2273C28.3397 12.7197 28.4423 13.0909 28.6474 13.3409C28.8525 13.5833 29.2019 13.7045 29.6957 13.7045C29.9388 13.7045 30.2731 13.6591 30.6985 13.5682V15.2727C30.1439 15.4242 29.6046 15.5 29.0804 15.5C28.1384 15.5 27.4281 15.2159 26.9495 14.6477C26.4709 14.0795 26.2316 13.2727 26.2316 12.2273V4.60227H23.9868V2.97727H26.2316V0H28.3397Z" fill="white"/>
<path d="M40.2932 12.0114C40.2932 11.4432 40.0767 11.0038 39.6437 10.6932C39.2183 10.375 38.47 10.1023 37.3988 9.875C36.3353 9.64773 35.4882 9.375 34.8577 9.05682C34.2348 8.73864 33.7714 8.35985 33.4675 7.92045C33.1712 7.48106 33.0231 6.95833 33.0231 6.35227C33.0231 5.3447 33.4485 4.49242 34.2994 3.79545C35.1578 3.09848 36.2517 2.75 37.5812 2.75C38.979 2.75 40.1109 3.10985 40.9769 3.82955C41.8505 4.54924 42.2873 5.4697 42.2873 6.59091H40.1678C40.1678 6.01515 39.921 5.51894 39.4272 5.10227C38.941 4.68561 38.3256 4.47727 37.5812 4.47727C36.8139 4.47727 36.2137 4.64394 35.7807 4.97727C35.3477 5.31061 35.1312 5.74621 35.1312 6.28409C35.1312 6.79167 35.3325 7.17424 35.7351 7.43182C36.1378 7.68939 36.8633 7.93561 37.9116 8.17045C38.9676 8.4053 39.8222 8.68561 40.4755 9.01136C41.1288 9.33712 41.6112 9.73106 41.9227 10.1932C42.2418 10.6477 42.4013 11.2045 42.4013 11.8636C42.4013 12.9621 41.9607 13.8447 41.0795 14.5114C40.1982 15.1705 39.0549 15.5 37.6495 15.5C36.6619 15.5 35.7883 15.3258 35.0286 14.9773C34.269 14.6288 33.6726 14.1439 33.2396 13.5227C32.8142 12.8939 32.6015 12.2159 32.6015 11.4886H34.7096C34.7476 12.1932 35.0286 12.7538 35.5528 13.1705C36.0846 13.5795 36.7835 13.7841 37.6495 13.7841C38.4472 13.7841 39.0853 13.625 39.5639 13.3068C40.0501 12.9811 40.2932 12.5492 40.2932 12.0114Z" fill="white"/>
<path d="M44.5892 9.01136C44.5892 7.80682 44.8247 6.72348 45.2957 5.76136C45.7743 4.79924 46.4352 4.05682 47.2784 3.53409C48.1292 3.01136 49.0978 2.75 50.1842 2.75C51.8631 2.75 53.2191 3.32955 54.2522 4.48864C55.293 5.64773 55.8134 7.18939 55.8134 9.11364V9.26136C55.8134 10.4583 55.5817 11.5341 55.1183 12.4886C54.6625 13.4356 54.0053 14.1742 53.1469 14.7045C52.2961 15.2348 51.3161 15.5 50.207 15.5C48.5357 15.5 47.1797 14.9205 46.1389 13.7614C45.1057 12.6023 44.5892 11.0682 44.5892 9.15909V9.01136ZM46.7087 9.26136C46.7087 10.625 47.0239 11.7197 47.6544 12.5455C48.2926 13.3712 49.1434 13.7841 50.207 13.7841C51.2781 13.7841 52.1289 13.3674 52.7595 12.5341C53.39 11.6932 53.7053 10.5189 53.7053 9.01136C53.7053 7.66288 53.3824 6.57197 52.7367 5.73864C52.0986 4.89773 51.2477 4.47727 50.1842 4.47727C49.1434 4.47727 48.304 4.89015 47.6658 5.71591C47.0277 6.54167 46.7087 7.72348 46.7087 9.26136Z" fill="white"/>
<path d="M60.4512 2.97727L60.5196 4.52273C61.4616 3.34091 62.6922 2.75 64.2116 2.75C66.8173 2.75 68.1315 4.21591 68.1543 7.14773V15.2727H66.0462V7.13636C66.0386 6.25 65.8335 5.5947 65.4309 5.17045C65.0358 4.74621 64.4167 4.53409 63.5735 4.53409C62.8897 4.53409 62.2896 4.71591 61.773 5.07955C61.2564 5.44318 60.8538 5.92045 60.5651 6.51136V15.2727H58.457V2.97727H60.4512Z" fill="white"/>
<path d="M71.3791 14.1705C71.3791 13.8068 71.4855 13.5038 71.6982 13.2614C71.9185 13.0189 72.2451 12.8977 72.6782 12.8977C73.1112 12.8977 73.4378 13.0189 73.6581 13.2614C73.886 13.5038 74 13.8068 74 14.1705C74 14.5189 73.886 14.8106 73.6581 15.0455C73.4378 15.2803 73.1112 15.3977 72.6782 15.3977C72.2451 15.3977 71.9185 15.2803 71.6982 15.0455C71.4855 14.8106 71.3791 14.5189 71.3791 14.1705Z" fill="white"/>
</svg>
