<svg width="100" height="27" viewBox="0 0 100 27" fill="none" xmlns="http://www.w3.org/2000/svg">
<path d="M13.9905 12.5748C13.9905 15.0884 13.4139 17.1135 12.2608 18.6501C11.1077 20.1867 9.5464 20.955 7.57691 20.955C5.56661 20.955 3.98489 20.319 2.83177 19.047V26.9998H0V4.13348H2.58686L2.72463 5.96523C3.87775 4.54053 5.47987 3.82818 7.53099 3.82818C9.52089 3.82818 11.0924 4.57615 12.2455 6.07208C13.4088 7.56801 13.9905 9.64908 13.9905 12.3153V12.5748ZM11.1587 12.2542C11.1587 10.392 10.7607 8.92147 9.96479 7.84277C9.16883 6.76407 8.07694 6.22472 6.68911 6.22472C4.97474 6.22472 3.68896 6.98286 2.83177 8.49915V16.3909C3.67876 17.897 4.97474 18.6501 6.71973 18.6501C8.07694 18.6501 9.15352 18.1158 9.94948 17.0473C10.7556 15.9686 11.1587 14.3709 11.1587 12.2542Z" fill="#4EC690"/>
<path d="M24.4757 20.955C22.2307 20.955 20.4041 20.2223 18.9959 18.7569C17.5876 17.2814 16.8835 15.3122 16.8835 12.8496V12.3306C16.8835 10.6922 17.1947 9.23185 17.8172 7.94962C18.4499 6.65722 19.3275 5.64976 20.45 4.92723C21.5827 4.19453 22.8073 3.82818 24.1237 3.82818C26.2768 3.82818 27.9504 4.53544 29.1443 5.94996C30.3383 7.36448 30.9352 9.38958 30.9352 12.0253V13.2006H19.7153C19.7561 14.8289 20.2306 16.1467 21.1388 17.1542C22.0572 18.1515 23.2206 18.6501 24.6288 18.6501C25.6288 18.6501 26.4758 18.4466 27.1697 18.0395C27.8636 17.6325 28.4708 17.0931 28.9913 16.4215L30.7209 17.7647C29.3331 19.8916 27.2514 20.955 24.4757 20.955ZM24.1237 6.1484C22.9807 6.1484 22.0215 6.56563 21.246 7.4001C20.4704 8.22438 19.9908 9.38449 19.8071 10.8804H28.1035V10.6667C28.0218 9.23185 27.634 8.12262 26.9401 7.33904C26.2462 6.54528 25.3074 6.1484 24.1237 6.1484Z" fill="#4EC690"/>
<path d="M38.0682 0.134155V4.13348H41.1602V6.31631H38.0682V16.5588C38.0682 17.2203 38.206 17.719 38.4815 18.0548C38.757 18.3804 39.2265 18.5432 39.8898 18.5432C40.2163 18.5432 40.6653 18.4822 41.2368 18.3601V20.6498C40.4918 20.8533 39.7673 20.955 39.0632 20.955C37.7978 20.955 36.8437 20.5734 36.2008 19.8102C35.5579 19.047 35.2365 17.9632 35.2365 16.5588V6.31631H32.221V4.13348H35.2365V0.134155H38.0682Z" fill="#4EC690"/>
<path d="M54.1252 16.2688C54.1252 15.5056 53.8343 14.9154 53.2527 14.4981C52.6812 14.0707 51.6761 13.7044 50.2372 13.3991C48.8086 13.0938 47.6708 12.7274 46.8238 12.3C45.987 11.8726 45.3645 11.3638 44.9563 10.7736C44.5584 10.1833 44.3594 9.48117 44.3594 8.66706C44.3594 7.3136 44.9308 6.16875 46.0737 5.23253C47.2269 4.2963 48.6963 3.82818 50.4821 3.82818C52.3598 3.82818 53.8803 4.31156 55.0436 5.27832C56.2171 6.24508 56.8039 7.48151 56.8039 8.98761H53.9568C53.9568 8.21421 53.6251 7.54765 52.9618 6.98795C52.3088 6.42825 51.4822 6.1484 50.4821 6.1484C49.4515 6.1484 48.6453 6.37228 48.0636 6.82004C47.482 7.2678 47.1911 7.85295 47.1911 8.57547C47.1911 9.25729 47.4616 9.7712 48.0024 10.1172C48.5433 10.4632 49.5178 10.7939 50.926 11.1094C52.3445 11.4249 53.4925 11.8014 54.3701 12.239C55.2477 12.6766 55.8957 13.2057 56.3141 13.8265C56.7426 14.4371 56.9569 15.185 56.9569 16.0704C56.9569 17.546 56.3651 18.7315 55.1813 19.627C53.9976 20.5124 52.4618 20.955 50.574 20.955C49.2474 20.955 48.0738 20.721 47.0534 20.2529C46.0329 19.7848 45.2319 19.1335 44.6502 18.299C44.0787 17.4544 43.793 16.5436 43.793 15.5666H46.6248C46.6758 16.5131 47.0534 17.2661 47.7575 17.8258C48.4718 18.3753 49.4106 18.6501 50.574 18.6501C51.6455 18.6501 52.5026 18.4364 53.1455 18.009C53.7986 17.5714 54.1252 16.9913 54.1252 16.2688Z" fill="#4EC690"/>
<path d="M59.8959 12.239C59.8959 10.6209 60.2122 9.1657 60.8449 7.8733C61.4878 6.5809 62.3756 5.58361 63.5083 4.88144C64.6512 4.17927 65.9523 3.82818 67.4116 3.82818C69.6668 3.82818 71.4883 4.60668 72.8761 6.16367C74.2741 7.72065 74.9732 9.79155 74.9732 12.3764V12.5748C74.9732 14.1827 74.6619 15.6277 74.0394 16.9099C73.4272 18.182 72.5445 19.1742 71.3913 19.8865C70.2484 20.5989 68.932 20.955 67.4422 20.955C65.1972 20.955 63.3756 20.1766 61.9776 18.6196C60.5898 17.0626 59.8959 15.0019 59.8959 12.4374V12.239ZM62.743 12.5748C62.743 14.4065 63.1664 15.877 64.0134 16.9863C64.8706 18.0955 66.0135 18.6501 67.4422 18.6501C68.881 18.6501 70.0239 18.0904 70.8709 16.971C71.7179 15.8414 72.1414 14.2641 72.1414 12.239C72.1414 10.4276 71.7077 8.96217 70.8403 7.84277C69.9831 6.71319 68.8402 6.1484 67.4116 6.1484C66.0135 6.1484 64.8859 6.70301 64.0287 7.81224C63.1715 8.92147 62.743 10.509 62.743 12.5748Z" fill="#4EC690"/>
<path d="M81.2031 4.13348L81.2949 6.20946C82.5603 4.62194 84.2134 3.82818 86.2543 3.82818C89.7545 3.82818 91.5199 5.79732 91.5505 9.73558V20.6498H88.7187V9.72031C88.7085 8.52968 88.433 7.64942 87.8922 7.07954C87.3615 6.50966 86.5299 6.22472 85.3971 6.22472C84.4787 6.22472 83.6726 6.46896 82.9787 6.95742C82.2848 7.44589 81.7439 8.087 81.3561 8.88076V20.6498H78.5244V4.13348H81.2031Z" fill="#4EC690"/>
<path d="M95.8824 19.1691C95.8824 18.6806 96.0252 18.2736 96.311 17.9479C96.6069 17.6223 97.0457 17.4595 97.6274 17.4595C98.209 17.4595 98.6478 17.6223 98.9437 17.9479C99.2499 18.2736 99.403 18.6806 99.403 19.1691C99.403 19.6372 99.2499 20.029 98.9437 20.3445C98.6478 20.6599 98.209 20.8177 97.6274 20.8177C97.0457 20.8177 96.6069 20.6599 96.311 20.3445C96.0252 20.029 95.8824 19.6372 95.8824 19.1691Z" fill="#4EC690"/>
</svg>
