<svg width="22" height="22" viewBox="0 0 22 22" fill="none" xmlns="http://www.w3.org/2000/svg">
<g clip-path="url(#clip0_9872_2095)">
<path d="M6.41699 16.5002C5.40866 16.5002 4.59283 17.3252 4.59283 18.3335C4.59283 19.3418 5.40866 20.1668 6.41699 20.1668C7.42533 20.1668 8.25033 19.3418 8.25033 18.3335C8.25033 17.3252 7.42533 16.5002 6.41699 16.5002ZM0.916992 1.8335V3.66683H2.75033L6.05033 10.6243L4.81283 12.8702C4.66616 13.1268 4.58366 13.4293 4.58366 13.7502C4.58366 14.7585 5.40866 15.5835 6.41699 15.5835H17.417V13.7502H6.80199C6.67366 13.7502 6.57283 13.6493 6.57283 13.521L6.60033 13.411L7.42533 11.9168H14.2545C14.942 11.9168 15.547 11.541 15.8587 10.9727L19.1403 5.0235C19.2137 4.89516 19.2503 4.73933 19.2503 4.5835C19.2503 4.07933 18.8378 3.66683 18.3337 3.66683H4.77616L3.91449 1.8335H0.916992ZM15.5837 16.5002C14.5753 16.5002 13.7595 17.3252 13.7595 18.3335C13.7595 19.3418 14.5753 20.1668 15.5837 20.1668C16.592 20.1668 17.417 19.3418 17.417 18.3335C17.417 17.3252 16.592 16.5002 15.5837 16.5002Z" fill="white"/>
</g>
<defs>
<clipPath id="clip0_9872_2095">
<rect width="22" height="22" fill="white"/>
</clipPath>
</defs>
</svg>
